<svg xmlns="http://www.w3.org/2000/svg" version="1.1" xmlns:xlink="http://www.w3.org/1999/xlink" width="512" height="512" x="0" y="0" viewBox="0 0 60 60" style="enable-background:new 0 0 512 512" xml:space="preserve" class=""><g><path fill="#8ba820" d="M26.891 39a7.894 7.894 0 0 1-.23 1.05 7.974 7.974 0 0 1-.45 1.2.707.707 0 0 1-1.158.166 36.274 36.274 0 0 0-9.712-7.681.864.864 0 0 0-.98 1.41 62.4 62.4 0 0 1 8.408 8.819.723.723 0 0 1-.252 1.08 9.268 9.268 0 0 1-7.4.351c-9.67-3.49-8.03-10.68-13.84-14.35a.517.517 0 0 1-.05-.89c2.46-1.33 10.48-5.02 18.87-2a10.579 10.579 0 0 1 4.9 3.65z" opacity="1" data-original="#8ba820"></path><path fill="#9cc824" d="M31.161 42.31a1.014 1.014 0 0 0 .452 1.241 13.281 13.281 0 0 0 14.639-1.763c11.92-9.6 6.13-18.99 12.55-26.991a.759.759 0 0 0-.37-1.26c-4.11-.7-17.19-2.06-27.56 6.251-5.975 4.821-7.631 13.369-3.845 19.436a.705.705 0 0 0 1.226-.04c1.33-2.579 5.113-9.314 10.4-13.686a.933.933 0 0 1 1.34 1.28 61.576 61.576 0 0 0-8.832 15.532z" opacity="1" data-original="#9cc824" class=""></path></g></svg>