<svg xmlns="http://www.w3.org/2000/svg" version="1.1" xmlns:xlink="http://www.w3.org/1999/xlink" width="512" height="512" x="0" y="0" viewBox="0 0 512 512" style="enable-background:new 0 0 512 512" xml:space="preserve" class=""><g><g data-name="Layer 1"><path fill="#94e671" d="M185.624 387.309 301.109 70.015a13.359 13.359 0 0 1 17.122-7.984l173.132 63.015a13.359 13.359 0 0 1 7.984 17.121L383.861 459.461a13.358 13.358 0 0 1-17.121 7.984L193.608 404.43a13.357 13.357 0 0 1-7.984-17.121z" opacity="1" data-original="#94e671" class=""></path><path fill="#52cc7b" d="m291.33 96.882 10.414-28.61a11.5 11.5 0 0 1 14.743-6.872l176.619 64.28a11.5 11.5 0 0 1 6.875 14.744l-10.413 28.611a11.5 11.5 0 0 0-6.875-14.744L306.074 90.007a11.5 11.5 0 0 0-14.744 6.875z" opacity="1" data-original="#52cc7b" class=""></path><path fill="#3d997a" d="m222.378 356.855 87.435-240.228A30.23 30.23 0 0 0 351.46 99.8l93.136 33.9a30.226 30.226 0 0 0 18.065 38.74L375.213 412.7a30.224 30.224 0 0 0-38.74 18.065l-95.912-34.909a30.425 30.425 0 0 0-18.183-39.001z" opacity="1" data-original="#3d997a" class=""></path><path fill="#ffdf40" d="M283.436 264.073A59.267 59.267 0 1 1 342.7 323.34a59.333 59.333 0 0 1-59.264-59.267z" opacity="1" data-original="#ffdf40"></path><path fill="#94e671" d="M147.213 376.285V38.628a13.357 13.357 0 0 1 13.358-13.358h184.243a13.357 13.357 0 0 1 13.358 13.358v337.657a13.357 13.357 0 0 1-13.358 13.358H160.571a13.357 13.357 0 0 1-13.358-13.358z" opacity="1" data-original="#94e671" class=""></path><path fill="#52cc7b" d="M147.213 67.22V36.773a11.5 11.5 0 0 1 11.5-11.5h187.956a11.5 11.5 0 0 1 11.5 11.5V67.22a11.5 11.5 0 0 0-11.5-11.5H158.716a11.5 11.5 0 0 0-11.503 11.5z" opacity="1" data-original="#52cc7b" class=""></path><path fill="#3d997a" d="M171.334 335.1V79.452a30.234 30.234 0 0 0 33.379-30.061h99.113a30.225 30.225 0 0 0 30.225 30.225V335.3a30.225 30.225 0 0 0-30.225 30.225H201.759a30.425 30.425 0 0 0-30.425-30.425z" opacity="1" data-original="#3d997a" class=""></path><path fill="#ffdf40" d="M193.426 207.456a59.267 59.267 0 1 1 59.266 59.267 59.332 59.332 0 0 1-59.266-59.267z" opacity="1" data-original="#ffdf40"></path><path fill="#94e671" d="M128.139 459.058 12.653 141.764a13.358 13.358 0 0 1 7.984-17.121l173.132-63.015a13.358 13.358 0 0 1 17.122 7.983l115.485 317.294a13.358 13.358 0 0 1-7.984 17.122L145.26 467.042a13.359 13.359 0 0 1-17.121-7.984z" opacity="1" data-original="#94e671" class=""></path><path fill="#52cc7b" d="m22.432 168.632-10.413-28.611a11.5 11.5 0 0 1 6.875-14.744l176.619-64.284a11.5 11.5 0 0 1 14.743 6.875l10.414 28.611a11.5 11.5 0 0 0-14.744-6.879L29.307 153.888a11.5 11.5 0 0 0-6.875 14.744z" opacity="1" data-original="#52cc7b" class=""></path><path fill="#3d997a" d="M136.719 412.1 49.283 171.876a30.231 30.231 0 0 0 21.084-39.664l93.136-33.9a30.226 30.226 0 0 0 38.74 18.065l87.448 240.261a30.224 30.224 0 0 0-18.065 38.74l-95.912 34.909a30.424 30.424 0 0 0-38.995-18.187z" opacity="1" data-original="#3d997a" class=""></path><path fill="#ffdf40" d="M113.822 284.605a59.267 59.267 0 1 1 75.963 35.422 59.334 59.334 0 0 1-75.963-35.422z" opacity="1" data-original="#ffdf40"></path><path fill="#ffdf40" d="M382.087 411.879v22.04a8.635 8.635 0 0 1-8.635 8.635 8.635 8.635 0 0 1 8.635 8.636v22.039a8.635 8.635 0 0 1-8.635 8.636H181.365a8.636 8.636 0 0 1-8.636-8.636V451.19a8.636 8.636 0 0 1 8.636-8.636 8.636 8.636 0 0 1-8.636-8.635v-22.04a8.637 8.637 0 0 1 8.636-8.636h192.087a8.636 8.636 0 0 1 8.635 8.636zm-8.635-47.946H181.365a8.636 8.636 0 0 0-8.636 8.635v22.04a8.636 8.636 0 0 0 8.636 8.635h192.087a8.635 8.635 0 0 0 8.635-8.635v-22.04a8.635 8.635 0 0 0-8.635-8.635zm8.635-47.947v-22.04a8.635 8.635 0 0 0-8.635-8.635H181.365a8.636 8.636 0 0 0-8.636 8.635v22.04a8.637 8.637 0 0 0 8.636 8.636 8.636 8.636 0 0 0-8.636 8.635V355.3a8.636 8.636 0 0 0 8.636 8.635h192.087a8.635 8.635 0 0 0 8.635-8.635v-22.04a8.635 8.635 0 0 0-8.635-8.635 8.636 8.636 0 0 0 8.635-8.639z" opacity="1" data-original="#ffdf40"></path><path fill="#ffbe40" d="M382.087 459.1v14.133a8.635 8.635 0 0 1-8.635 8.636H181.365a8.636 8.636 0 0 1-8.636-8.636V459.1a8.636 8.636 0 0 0 8.636 8.636h192.087a8.635 8.635 0 0 0 8.635-8.636zm0-39.31v14.133a8.635 8.635 0 0 1-8.635 8.635H181.365a8.636 8.636 0 0 1-8.636-8.635v-14.137a8.636 8.636 0 0 0 8.636 8.635h192.087a8.635 8.635 0 0 0 8.635-8.635zm0-39.311v14.133a8.635 8.635 0 0 1-8.635 8.635H181.365a8.636 8.636 0 0 1-8.636-8.635v-14.137a8.636 8.636 0 0 0 8.636 8.635h192.087a8.635 8.635 0 0 0 8.635-8.635zm0-39.311V355.3a8.636 8.636 0 0 1-8.635 8.636H181.365a8.637 8.637 0 0 1-8.636-8.636v-14.136a8.636 8.636 0 0 0 8.636 8.635h192.087a8.635 8.635 0 0 0 8.635-8.635zm0-39.311v14.133a8.636 8.636 0 0 1-8.635 8.636H181.365a8.637 8.637 0 0 1-8.636-8.636v-14.137a8.636 8.636 0 0 0 8.636 8.635h192.087a8.635 8.635 0 0 0 8.635-8.635z" opacity="1" data-original="#ffbe40"></path><path fill="#fdbf00" d="M479.789 383.044A103.687 103.687 0 1 1 376.1 279.357a103.686 103.686 0 0 1 103.689 103.687z" opacity="1" data-original="#fdbf00"></path><path fill="#ff9100" d="M376.1 486.73a103.687 103.687 0 0 1 0-207.373z" opacity="1" data-original="#ff9100"></path><path fill="#ffdf40" d="M376.1 457.99a74.946 74.946 0 1 1 74.946-74.946A75.03 75.03 0 0 1 376.1 457.99z" opacity="1" data-original="#ffdf40"></path><path fill="#ffbe40" d="M376.1 457.99a74.946 74.946 0 0 1 0-149.892z" opacity="1" data-original="#ffbe40"></path><path fill="#fdbf00" d="M401.491 394.887a22.715 22.715 0 0 1-11.881 23.979 29.641 29.641 0 0 1-6.51 2.545v6.889a7 7 0 0 1-14 0v-6.554a29.085 29.085 0 0 1-5.249-1.643c-6.637-2.8-11.454-7.95-13.218-14.119a7 7 0 0 1 13.461-3.848c.593 2.076 2.491 3.924 5.206 5.072a16.236 16.236 0 0 0 13.687-.675 8.873 8.873 0 0 0 4.727-9.16c-.883-4.9-6.521-8.517-15.083-9.689-9.8-1.341-17.025-6.764-19.822-14.877a21.047 21.047 0 0 1 4.776-21.343 25.266 25.266 0 0 1 11.515-6.612v-6.886a7 7 0 0 1 14 0v6.7a27.264 27.264 0 0 1 14.768 9.427A7 7 0 0 1 387 362.911a13.239 13.239 0 0 0-9.922-5.041 12.7 12.7 0 0 0-9.447 3.345 6.932 6.932 0 0 0-1.586 7.028c1.029 2.983 4.042 4.961 8.486 5.569 14.869 2.035 24.948 9.914 26.96 21.075z" opacity="1" data-original="#fdbf00"></path><g fill="#ff9100"><path d="M192.077 258.062a10.359 10.359 0 0 1-1.054 8.646 7 7 0 1 0 12.01 7.195 24.382 24.382 0 0 0 3.47-14.487l4.663-1.7a7 7 0 1 0-4.789-13.156l-4.831 1.759a22.5 22.5 0 0 0-8.654-7.045 19.043 19.043 0 0 0-19.624 2.544c-5.927 4.8-8.362 12.769-6.516 21.307 1.469 6.789.383 11.984-2.9 13.9a6.584 6.584 0 0 1-7.586-1 12.884 12.884 0 0 1-4.219-10.019 6.36 6.36 0 0 1 2.144-4.915 7 7 0 1 0-8.219-11.333 20.154 20.154 0 0 0-7.906 15.538 25.919 25.919 0 0 0 .307 5.429l-4.077 1.484a7 7 0 1 0 4.789 13.156l5.05-1.838a26.157 26.157 0 0 0 2.807 2.942 20.879 20.879 0 0 0 13.9 5.367 19.954 19.954 0 0 0 10.058-2.71c8.789-5.12 12.355-15.945 9.541-28.957-.729-3.366-.143-6.02 1.647-7.471a4.928 4.928 0 0 1 5.08-.646 9.814 9.814 0 0 1 4.909 6.01zM352.809 372.806a21.047 21.047 0 0 1 4.776-21.343 25.266 25.266 0 0 1 11.515-6.612v-6.886a7 7 0 0 1 7-7v26.911a12.44 12.44 0 0 0-8.473 3.339 6.932 6.932 0 0 0-1.586 7.028c1.028 2.983 4.042 4.961 8.485 5.569.536.073 1.051.171 1.574.259v14.265a35.652 35.652 0 0 0-3.472-.653c-9.798-1.341-17.023-6.764-19.819-14.877zm23.291 35.579a15.79 15.79 0 0 1-6.8-1.178c-2.715-1.148-4.613-3-5.206-5.072a7 7 0 0 0-13.461 3.848c1.763 6.169 6.581 11.316 13.218 14.119a29.085 29.085 0 0 0 5.249 1.643v6.555a7 7 0 0 0 7 7z" fill="#ff9100" opacity="1" data-original="#ff9100"></path></g></g></g></svg>