<svg xmlns="http://www.w3.org/2000/svg" version="1.1" xmlns:xlink="http://www.w3.org/1999/xlink" width="512" height="512" x="0" y="0" viewBox="0 0 96 96" style="enable-background:new 0 0 512 512" xml:space="preserve" class=""><g><g data-name="Cooking oil"><rect width="37.62" height="13.91" x="29.19" y="82.09" fill="#f9a454" rx="2.77" opacity="1" data-original="#f9a454"></rect><rect width="31.92" height="13.91" x="29.19" y="82.09" fill="#f9c74f" rx="2.77" opacity="1" data-original="#f9c74f"></rect><rect width="25.79" height="13.91" x="32.26" y="82.09" fill="#f9ea63" rx="2.77" opacity="1" data-original="#f9ea63" class=""></rect><path fill="#f9a454" d="M64.27 82.09H31.73a2.6 2.6 0 0 1 0-5.19h32.54a2.6 2.6 0 0 1 0 5.19z" opacity="1" data-original="#f9a454"></path><path fill="#f9c74f" d="M58.57 82.09H31.73a2.6 2.6 0 0 1 0-5.19h26.84a2.6 2.6 0 0 1 0 5.19z" opacity="1" data-original="#f9c74f"></path><path fill="#f9ea63" d="M55.5 82.09H34.8a2.6 2.6 0 0 1 0-5.19h20.7a2.6 2.6 0 0 1 0 5.19z" opacity="1" data-original="#f9ea63" class=""></path><path fill="#f9a454" d="M64.27 76.9H31.73a2.6 2.6 0 0 1 0-5.19h32.54a2.6 2.6 0 0 1 0 5.19z" opacity="1" data-original="#f9a454"></path><path fill="#f9c74f" d="M58.57 76.9H31.73a2.6 2.6 0 0 1 0-5.19h26.84a2.6 2.6 0 0 1 0 5.19z" opacity="1" data-original="#f9c74f"></path><path fill="#f9ea63" d="M55.5 76.9H34.8a2.6 2.6 0 0 1 0-5.19h20.7a2.6 2.6 0 0 1 0 5.19z" opacity="1" data-original="#f9ea63" class=""></path><path fill="#ffffff" d="M48.9 74.3h-7.5a1.3 1.3 0 0 1 0-2.59h7.5a1.3 1.3 0 0 1 0 2.59z" opacity="1" data-original="#ffffff"></path><path fill="#f9a454" d="M64.27 71.71H31.73a2.6 2.6 0 0 1 0-5.2h32.54a2.6 2.6 0 0 1 0 5.2z" opacity="1" data-original="#f9a454"></path><path fill="#f9c74f" d="M58.57 71.71H31.73a2.6 2.6 0 0 1 0-5.2h26.84a2.6 2.6 0 0 1 0 5.2z" opacity="1" data-original="#f9c74f"></path><path fill="#f9ea63" d="M55.5 71.71H34.8a2.6 2.6 0 0 1 0-5.2h20.7a2.6 2.6 0 0 1 0 5.2z" opacity="1" data-original="#f9ea63" class=""></path><path fill="#ffffff" d="M47.63 71.71h-5a2.6 2.6 0 0 1 0-5.2h5a2.6 2.6 0 0 1 0 5.2z" opacity="1" data-original="#ffffff"></path><rect width="37.62" height="27.76" x="29.19" y="38.75" fill="#ef4f36" rx="2.54" opacity="1" data-original="#ef4f36" class=""></rect><rect width="31.92" height="27.76" x="29.19" y="38.75" fill="#dbdbdb" rx="2.54" opacity="1" data-original="#dbdbdb"></rect><rect width="31.92" height="27.76" x="29.19" y="38.75" fill="#f98154" rx="2.54" opacity="1" data-original="#f98154" class=""></rect><rect width="10.04" height="24.38" x="40.13" y="38.75" fill="#f1f2f2" rx="2.54" opacity="1" data-original="#f1f2f2" class=""></rect><path fill="#f9a454" d="M64.27 38.75H31.73a2.6 2.6 0 0 1 0-5.19h32.54a2.6 2.6 0 0 1 0 5.19z" opacity="1" data-original="#f9a454"></path><path fill="#f9c74f" d="M58.57 38.75H31.73a2.6 2.6 0 0 1 0-5.19h26.84a2.6 2.6 0 0 1 0 5.19z" opacity="1" data-original="#f9c74f"></path><path fill="#f9ea63" d="M55.5 38.75H34.8a2.6 2.6 0 0 1 0-5.19h20.7a2.6 2.6 0 0 1 0 5.19z" opacity="1" data-original="#f9ea63" class=""></path><path fill="#ffffff" d="M48.9 36.16h-7.5a1.3 1.3 0 0 1 0-2.6h7.5a1.3 1.3 0 0 1 0 2.6z" opacity="1" data-original="#ffffff"></path><path fill="#f9a454" d="M66.82 28v2.71A2.83 2.83 0 0 1 64 33.56h-5.72a2.83 2.83 0 0 0 2.83-2.83V28a12.39 12.39 0 0 0-4.37-9.44l-9.33-7.95h5.7l9.34 7.95A12.39 12.39 0 0 1 66.82 28z" opacity="1" data-original="#f9a454"></path><path fill="#f9c74f" d="M61.11 28v2.71a2.83 2.83 0 0 1-2.83 2.83H32a2.83 2.83 0 0 1-2.83-2.83V28a12.39 12.39 0 0 1 4.37-9.44l9.34-7.95h4.52l9.33 7.95A12.39 12.39 0 0 1 61.11 28z" opacity="1" data-original="#f9c74f"></path><path fill="#f9ea63" d="M34.72 30.49A2.47 2.47 0 0 1 32.25 28a9.35 9.35 0 0 1 3.28-7.11l7.63-6.48a3.07 3.07 0 0 1 4 0l7.62 6.49A9.31 9.31 0 0 1 58 28a2.47 2.47 0 0 1-2.47 2.47z" opacity="1" data-original="#f9ea63" class=""></path><path fill="#ffffff" d="M33.71 26.38a1 1 0 0 1-1-1.34c1-3 2.66-4 6-6.82A1 1 0 0 1 40 19.78c-3.14 2.68-4.54 3.53-5.34 5.91a1 1 0 0 1-.95.69z" opacity="1" data-original="#ffffff"></path><path fill="#f9a454" d="M42.89 6.55H53.1v4.09H42.89z" opacity="1" data-original="#f9a454"></path><path fill="#f9c74f" d="M42.89 6.55h4.51v4.09h-4.51z" opacity="1" data-original="#f9c74f"></path><rect width="13.45" height="6.55" x="41.28" y="-.01" fill="#f97740" rx="1.48" opacity="1" data-original="#f97740"></rect><rect width="9.21" height="6.55" x="41.28" y="-.01" fill="#f9a454" rx="1.48" opacity="1" data-original="#f9a454"></rect><path fill="#f9c74f" d="M47.47 2.23h-2.64a1 1 0 0 0-1 1 1 1 0 0 0 1 1.06h2.64a1 1 0 0 0 1-1 1 1 0 0 0-1-1.06z" opacity="1" data-original="#f9c74f"></path><path fill="#f9ea63" d="M52.39 54.46a4.39 4.39 0 1 1-8.78 0c0-2.43 4.39-8 4.39-8s4.39 5.54 4.39 8z" opacity="1" data-original="#f9ea63" class=""></path><rect width="11.87" height="4.48" x="38.3" y="86.81" fill="#ffffff" rx="2.19" opacity="1" data-original="#ffffff"></rect></g></g></svg>