<svg xmlns="http://www.w3.org/2000/svg" version="1.1" xmlns:xlink="http://www.w3.org/1999/xlink" width="512" height="512" x="0" y="0" viewBox="0 0 60 60" style="enable-background:new 0 0 512 512" xml:space="preserve" class=""><g><g fill="#8ec140"><path d="M59 43a11.652 11.652 0 0 1-1.57 6.1 11.348 11.348 0 0 1-6.44 5.14 9.624 9.624 0 0 1-3.05.54l-5.94.21v2.43a1.533 1.533 0 0 1-2.57 1.17l-6.93-6.44a1.6 1.6 0 0 1 0-2.33l6.93-6.44A1.532 1.532 0 0 1 42 44.54v2.44h12a5.306 5.306 0 0 0-.44-.81l-7.77-11.93a2.022 2.022 0 0 1 .58-2.78l3.35-2.19a2 2 0 0 1 2.77.59l4.64 7.13A11.545 11.545 0 0 1 59 43zM5.88 46.92l-.01.01-.01-.01z" fill="#8ec140" opacity="1" data-original="#8ec140" class=""></path><path d="M23 52.99a2.006 2.006 0 0 1-2 2h-8.48a11.487 11.487 0 0 1-6.04-1.7 11.62 11.62 0 0 1-4.25-4.64 11.3 11.3 0 0 1-.8-8.2c.03-.12.06-.25.1-.38a11.96 11.96 0 0 1 1.1-2.49l3.06-5.1-2.03-1.33a1.532 1.532 0 0 1 .42-2.79l9.16-2.31a1.592 1.592 0 0 1 1.94 1.26l1.62 9.33a1.533 1.533 0 0 1-2.37 1.53l-2.04-1.33-6.51 10.08h-.02l.01.01.01-.01a5.4 5.4 0 0 0 .91.08l14.2-.02a2.006 2.006 0 0 1 2 2z" fill="#8ec140" opacity="1" data-original="#8ec140" class=""></path><path d="m5.88 46.92-.01.01-.01-.01zM23.633 23.215a10.029 10.029 0 0 0 4.542 2.4c4.546 1.287 6.6 1.81 8 3.352 1.82 2 2.542 6.379 2.741 8.557a1.517 1.517 0 0 1-1.091 1.605c-3.429.968-10.72 2.276-14.19-3.226-2.512-3.982-1.525-9.957-.952-12.426a.564.564 0 0 1 .95-.262z" fill="#8ec140" opacity="1" data-original="#8ec140" class=""></path></g><path fill="#83ad3a" d="M59 43a11.673 11.673 0 0 1-1.57 6.1 11.372 11.372 0 0 1-6.44 5.138A5.441 5.441 0 0 0 54 46.979a5.325 5.325 0 0 0-.44-.812l-7.77-11.928a2.014 2.014 0 0 1 .58-2.774l3.35-2.194a2 2 0 0 1 2.77.591l4.64 7.131A11.514 11.514 0 0 1 59 43z" opacity="1" data-original="#83ad3a"></path><path fill="#8ec140" d="m44.69 10.52-2.13 1.17-3.04-5.1a13.345 13.345 0 0 0-1.94-2.42A11.394 11.394 0 0 0 29.98 1a11.668 11.668 0 0 0-6.09 1.56 11.457 11.457 0 0 0-4.36 4.53l-4 7.5a2 2 0 0 0 .82 2.71l3.53 1.88a2.006 2.006 0 0 0 2.71-.83l6.69-12.54a5.138 5.138 0 0 1 .49-.78l5.79 10.51-2.13 1.18a1.53 1.53 0 0 0 .22 2.81l8.97 2.97a1.583 1.583 0 0 0 2.03-1.12l2.3-9.17a1.532 1.532 0 0 0-2.26-1.69z" opacity="1" data-original="#8ec140" class=""></path><path fill="#83ad3a" d="M37.58 4.17a5.437 5.437 0 0 0-7.81.86 5.138 5.138 0 0 0-.49.78l-6.69 12.54a2.006 2.006 0 0 1-2.71.83l-3.53-1.88a2 2 0 0 1-.82-2.71l4-7.5a11.457 11.457 0 0 1 4.36-4.53A11.668 11.668 0 0 1 29.98 1a11.394 11.394 0 0 1 7.6 3.17zM23 52.988a2.007 2.007 0 0 1-2 2h-8.476a11.478 11.478 0 0 1-6.047-1.7 11.61 11.61 0 0 1-4.248-4.638 11.405 11.405 0 0 1-.7-8.583 5.412 5.412 0 0 0 4.347 6.851 5.4 5.4 0 0 0 .91.08l14.2-.02a2.007 2.007 0 0 1 2 2z" opacity="1" data-original="#83ad3a"></path><path fill="#738e43" d="M38.91 37.5v.03a1.509 1.509 0 0 1-1.09 1.6l-.09.03c-5.37-5.2-8.94-6.18-8.98-6.19a1.016 1.016 0 0 1-.72-1.22 1 1 0 0 1 1.21-.72c.17.04 3.98 1.04 9.67 6.47z" opacity="1" data-original="#738e43"></path></g></svg>