<svg xmlns="http://www.w3.org/2000/svg" version="1.1" xmlns:xlink="http://www.w3.org/1999/xlink" width="512" height="512" x="0" y="0" viewBox="0 0 512 512" style="enable-background:new 0 0 512 512" xml:space="preserve" class=""><g><g data-name="/ FLAT"><rect width="224" height="384" x="88" y="24" fill="#6bb632" rx="16" opacity="1" data-original="#46c89d" class=""></rect><path fill="#e8ff7b" d="M136 152h184a168 168 0 0 1 168 168 168 168 0 0 1-168 168h-16a168 168 0 0 1-168-168V152z" opacity="1" data-original="#f9d6b4" class=""></path><path fill="#dcf46f" d="M241.42 475.947A167.52 167.52 0 0 0 304 488h16a168 168 0 0 0 168-168 167.395 167.395 0 0 0-14.812-69.072 336.682 336.682 0 0 1-231.767 225.02z" opacity="1" data-original="#d4b699" class=""></path><path fill="#488916" d="m136 24 4.97 19.88A16 16 0 0 0 156.492 56h87.016a16 16 0 0 0 15.522-12.12L264 24z" opacity="1" data-original="#00b378" class=""></path><g fill="#bdecdc"><rect width="32" height="32" x="120" y="88" rx="8" fill="#ffffff" opacity="1" data-original="#bdecdc" class=""></rect><rect width="32" height="32" x="184" y="88" rx="8" fill="#ffffff" opacity="1" data-original="#bdecdc" class=""></rect><rect width="32" height="32" x="248" y="88" rx="8" fill="#ffffff" opacity="1" data-original="#bdecdc" class=""></rect><path d="M376 24h16v24h-16zM352 48h24v16h-24zM376 64h16v24h-16zM392 48h24v16h-24zM448 88h16v24h-16zM424 112h24v16h-24zM464 112h24v16h-24z" fill="#ffffff" opacity="1" data-original="#bdecdc" class=""></path></g><path fill="#e8bb85" d="M104 408a16 16 0 0 1-16-16v-98.745a16 16 0 0 1 4.686-11.314L120 254.627a22.627 22.627 0 0 0 0-32 22.627 22.627 0 0 0-32 0l-43.314 43.314A16 16 0 0 0 40 277.255v68.118A32 32 0 0 1 30.627 368L16 382.627 40 496l46.627-46.627A32 32 0 0 1 109.255 440h13.49a32 32 0 0 0 22.628-9.373L168 408z" opacity="1" data-original="#e8bb85" class=""></path><path fill="#ffffff" d="M448 128h16v24h-16z" opacity="1" data-original="#bdecdc" class=""></path><path fill="#488916" d="M400 216H208a16 16 0 0 0-16 16v176h16v-32h192v32h16V232a16 16 0 0 0-16-16z" opacity="1" data-original="#00b378" class=""></path><path fill="#7fd241" d="M400 296H208a16 16 0 0 0-16 16v64h224v-64a16 16 0 0 0-16-16z" opacity="1" data-original="#31c292" class=""></path><path fill="#ffffff" d="M272 248h-32a16 16 0 0 0-16 16v32h64v-32a16 16 0 0 0-16-16zM368 248h-32a16 16 0 0 0-16 16v32h64v-32a16 16 0 0 0-16-16z" opacity="1" data-original="#59cea7" class=""></path><circle cx="304" cy="392" r="64" fill="#de5d20" opacity="1" data-original="#00a16c" class=""></circle><path fill="#ffffff" d="m296 427.314-21.657-21.657 11.314-11.314L296 404.686l42.343-42.343 11.314 11.314z" opacity="1" data-original="#bdecdc" class=""></path><path fill="#be4b15" d="M304 456a64.015 64.015 0 0 0 60.793-43.993 336.229 336.229 0 0 1-68.532 43.51A64.54 64.54 0 0 0 304 456z" opacity="1" data-original="#00895c" class=""></path><path fill="#53a52a" d="M400 378.67V408h16v-48.17q-7.658 9.715-16 18.84z" opacity="1" data-original="#009866" class=""></path><path fill="#2aa57c" d="M402.411 376H416v-16.17q-6.543 8.3-13.589 16.17z" opacity="1" data-original="#2aa57c" class=""></path></g></g></svg>