  <svg
      xmlns="http://www.w3.org/2000/svg"
      fill="#c5ff8fff"
      viewBox="0 0 24 24"
      className="w-0 h-0 opacity-0 group-hover:w-6 group-hover:h-6 group-hover:opacity-100 
                 transition-all duration-300 ease-in-out text-green-400"
    >
      <path d="M20.52 3.48A11.78 11.78 0 0 0 12.03 0C5.39 0 .03 5.36.03 11.97c0 2.11.55 4.17 1.61 5.98L0 24l6.28-1.64A11.93 11.93 0 0 0 12.03 24h.01c6.63 0 12-5.37 12-12.03A11.96 11.96 0 0 0 20.52 3.48zm-8.49 18.44h-.01c-1.83 0-3.63-.49-5.2-1.41l-.37-.22-3.73.97 1-3.64-.24-.37a9.94 9.94 0 0 1-1.54-5.36C2.94 6.79 6.99 2.73 12.02 2.73a9.98 9.98 0 0 1 9.99 9.99c0 5.03-4.06 9.2-8.98 9.2zM17.15 14.9c-.28-.14-1.66-.82-1.92-.91-.26-.1-.45-.14-.63.14-.19.27-.72.91-.89 1.09-.16.18-.33.2-.61.07-.28-.14-1.19-.44-2.26-1.4-.84-.75-1.4-1.68-1.56-1.96-.16-.27-.02-.43.12-.57.12-.12.27-.32.4-.48.13-.16.17-.27.26-.45.08-.18.04-.34-.02-.48-.07-.14-.63-1.52-.86-2.08-.23-.55-.47-.48-.63-.49-.16 0-.34-.02-.52-.02s-.48.07-.73.34c-.26.27-.96.94-.96 2.3 0 1.36.99 2.68 1.13 2.86.14.18 1.95 2.99 4.74 4.1.66.29 1.18.46 1.58.59.66.21 1.26.18 1.73.11.53-.08 1.66-.68 1.9-1.34.23-.66.23-1.22.16-1.34-.07-.12-.25-.19-.53-.33z" />
    </svg>